<svg id="Слой_1" data-name="Слой 1" xmlns="http://www.w3.org/2000/svg" viewBox="0 0 250 250">
  <defs>
    <style>
      .cls-1 {
        fill: #5568c6;
      }

      .cls-2, .cls-3 {
        fill: none;
        stroke: #000;
        stroke-linecap: round;
        stroke-linejoin: round;
      }

      .cls-2 {
        stroke-width: 7.28px;
      }

      .cls-3 {
        stroke-width: 4.85px;
      }
    </style>
  </defs>
  <g>
    <circle class="cls-1" cx="172.48" cy="72.82" r="44.9"/>
    <g>
      <path class="cls-2" d="M172.48,211.16a85.83,85.83,0,0,0,10.31-.63A103.15,103.15,0,1,1,125.15,21.85a102.61,102.61,0,0,1,61.94,20.68,84.95,84.95,0,1,0-14.61,168.63Z"/>
      <path class="cls-3" d="M142,91l3.29,13a1.19,1.19,0,0,0,.83.84l13,3.29a1.15,1.15,0,0,1,0,2.23l-13,3.29a1.18,1.18,0,0,0-.83.83l-3.29,13a1.15,1.15,0,0,1-2.23,0l-3.29-13a1.18,1.18,0,0,0-.83-.83l-13-3.29a1.15,1.15,0,0,1,0-2.23l13-3.29a1.19,1.19,0,0,0,.83-.84l3.29-13A1.15,1.15,0,0,1,142,91Z"/>
      <path class="cls-3" d="M210,134.66l3.29,13a1.13,1.13,0,0,0,.83.83l13,3.3a1.14,1.14,0,0,1,0,2.22l-13,3.3a1.13,1.13,0,0,0-.83.83l-3.29,13a1.15,1.15,0,0,1-2.23,0l-3.3-13a1.13,1.13,0,0,0-.83-.83l-13-3.3a1.14,1.14,0,0,1,0-2.22l13-3.3a1.13,1.13,0,0,0,.83-.83l3.3-13A1.15,1.15,0,0,1,210,134.66Z"/>
    </g>
  </g>
</svg>
