<svg id="Слой_1" data-name="Слой 1" xmlns="http://www.w3.org/2000/svg" viewBox="0 0 250 250">
  <defs>
    <style>
      .cls-1 {
        fill: #ffe106;
      }

      .cls-2, .cls-3 {
        fill: none;
        stroke-miterlimit: 10;
      }

      .cls-2, .cls-3, .cls-4 {
        stroke: #000;
        stroke-width: 7.34px;
      }

      .cls-3, .cls-4 {
        stroke-linecap: round;
      }

      .cls-4 {
        fill: #fff;
        stroke-linejoin: round;
      }
    </style>
  </defs>
  <g>
    <g>
      <circle class="cls-1" cx="191.72" cy="73.6" r="45.28"/>
      <g>
        <circle class="cls-2" cx="129.66" cy="121.72" r="65.42"/>
        <g>
          <line class="cls-3" x1="129.66" y1="198.13" x2="129.66" y2="219.23"/>
          <line class="cls-3" x1="129.66" y1="24.65" x2="129.66" y2="45.75"/>
        </g>
        <g>
          <line class="cls-3" x1="183.54" y1="175.81" x2="198.46" y2="190.74"/>
          <line class="cls-3" x1="60.87" y1="53.15" x2="75.79" y2="68.07"/>
        </g>
        <g>
          <line class="cls-3" x1="205.85" y1="121.94" x2="226.95" y2="121.94"/>
          <line class="cls-3" x1="32.37" y1="121.94" x2="53.47" y2="121.94"/>
        </g>
        <g>
          <line class="cls-3" x1="183.54" y1="68.07" x2="198.46" y2="53.15"/>
          <line class="cls-3" x1="60.87" y1="190.74" x2="75.79" y2="175.81"/>
        </g>
      </g>
    </g>
    <g>
      <path class="cls-4" d="M147.94,176.79c0-.95-.12-4.34-.28-5.29-2.09-12.81-15.3-22.25-29.37-19.58-.32-.91-6-16.06-22-19.58-15-3.28-28.36,11.32-29.37,12.24L62,169.06l75.87,29.37Z"/>
      <path class="cls-4" d="M83.46,155.91c-8.62-9.53-22.12-13.21-33.7-8.88-12.35,4.61-20.55,17.6-19.58,31.82a23.93,23.93,0,0,0,2.45,46.5H150.11a24.7,24.7,0,0,0,17.13-24.48c-.54-10.92-8.57-19.1-17.13-22-8.11-2.78-17.27-1-24.45,4.31"/>
      <path class="cls-4" d="M90.81,165.47c-.37-.73-.76-1.43-1.18-2.11"/>
      <path class="cls-4" d="M117.91,190.68c-.47.58-.93,1.19-1.37,1.81"/>
    </g>
  </g>
</svg>
