<svg id="Слой_1" data-name="Слой 1" xmlns="http://www.w3.org/2000/svg" viewBox="0 0 250 250">
  <defs>
    <style>
      .cls-1 {
        fill: #5568c6;
      }

      .cls-2 {
        fill: none;
      }

      .cls-2, .cls-3 {
        stroke: #000;
        stroke-linecap: round;
        stroke-linejoin: round;
        stroke-width: 6.93px;
      }

      .cls-3 {
        fill: #fff;
      }
    </style>
  </defs>
  <g>
    <g>
      <circle class="cls-1" cx="190.27" cy="71.3" r="42.73"/>
      <path class="cls-2" d="M217.19,131.92a61.57,61.57,0,0,0,4.78-5.76,74.72,74.72,0,1,1-86.58-85.57,61.53,61.53,0,1,0,81.8,91.33Z"/>
    </g>
    <g>
      <path class="cls-3" d="M144.34,175.6c0-.89-.12-4.09-.26-5-2-12.1-14.45-21-27.72-18.48-.3-.86-5.63-15.16-20.79-18.48-14.12-3.09-26.76,10.68-27.71,11.55l-4.62,23.1L134.84,196Z"/>
      <path class="cls-3" d="M83.49,155.9c-8.13-9-20.87-12.46-31.8-8.38-11.66,4.36-19.4,16.61-18.48,30a22.58,22.58,0,0,0,2.31,43.88H146.39a23.3,23.3,0,0,0,16.16-23.1c-.51-10.31-8.09-18-16.16-20.78a25.2,25.2,0,0,0-23.07,4.06"/>
      <path class="cls-3" d="M90.43,164.92c-.35-.68-.72-1.35-1.11-2"/>
      <path class="cls-3" d="M116,188.71q-.68.82-1.29,1.71"/>
    </g>
  </g>
</svg>
