<svg id="Слой_1" data-name="Слой 1" xmlns="http://www.w3.org/2000/svg" viewBox="0 0 250 250">
  <defs>
    <style>
      .cls-1 {
        fill: #fff;
      }

      .cls-1, .cls-2 {
        stroke: #000;
        stroke-linecap: round;
        stroke-linejoin: round;
        stroke-width: 7.52px;
      }

      .cls-2 {
        fill: none;
      }
    </style>
  </defs>
  <g>
    <path class="cls-1" d="M208.18,122.54c0-1.36-.18-6.25-.4-7.61-3-18.44-22-32-42.26-28.17-.46-1.31-8.6-23.12-31.7-28.18C112.28,53.86,98,67.34,96.57,68.67"/>
    <path class="cls-2" d="M183.45,192.42H211.3A35.56,35.56,0,0,0,236,157.2c-.78-15.72-12.34-27.49-24.66-31.7-18.75-6.41-34.3,5.5-35.18,6.2-13.09,10.44-14,25.77-14.1,28.11"/>
    <path class="cls-2" d="M167.17,192.42h6.13"/>
    <path class="cls-2" d="M126.91,122.2A71.9,71.9,0,0,0,115.4,92.49,44.19,44.19,0,0,0,66.9,79.71c-18.36,6.82-30.1,25.68-28.18,45.79a34.44,34.44,0,0,0,3.52,66.92H157"/>
  </g>
</svg>
