<svg id="Слой_1" data-name="Слой 1" xmlns="http://www.w3.org/2000/svg" viewBox="0 0 250 250">
  <defs>
    <style>
      .cls-1 {
        fill: #fff;
      }

      .cls-1, .cls-2 {
        stroke: #000;
        stroke-linecap: round;
        stroke-linejoin: round;
        stroke-width: 7.9px;
      }

      .cls-2 {
        fill: none;
      }
    </style>
  </defs>
  <g>
    <path class="cls-1" d="M183,143.7c0-1.19-.16-5.47-.35-6.66-2.64-16.14-19.28-28-37-24.66-.41-1.14-7.52-20.23-27.74-24.66C99,83.59,82.14,102,80.88,103.13L74.71,134l95.56,37Z"/>
    <path class="cls-1" d="M101.74,117.4c-10.85-12-27.86-16.63-42.44-11.18C43.74,112,33.41,128.39,34.64,146.29a30.14,30.14,0,0,0,3.08,58.57h148A31.12,31.12,0,0,0,207.26,174c-.68-13.76-10.8-24.06-21.58-27.74-10.22-3.49-21.75-1.31-30.79,5.43"/>
    <path class="cls-1" d="M111,129.44c-.47-.91-1-1.8-1.49-2.66"/>
    <path class="cls-1" d="M145.13,161.2c-.6.73-1.18,1.49-1.73,2.28"/>
    <path class="cls-1" d="M76.5,77.6a41.62,41.62,0,0,1,68.26-3.14"/>
    <path class="cls-1" d="M68.84,91.38A18.9,18.9,0,0,1,69.69,89"/>
    <path class="cls-2" d="M126.32,58.66c.63-.72,14.57-16,31.61-13.17,16.47,2.71,23.24,17.36,23.71,18.44a38.85,38.85,0,0,1,23.71,10.53A38.35,38.35,0,0,1,215.89,92.9c13.26,5.7,21.76,17.69,21.07,29-1,15.66-19.64,30.84-42.15,26.34"/>
  </g>
</svg>
