<svg id="Слой_1" data-name="Слой 1" xmlns="http://www.w3.org/2000/svg" viewBox="0 0 250 250">
  <defs>
    <style>
      .cls-1 {
        fill: #fff;
      }

      .cls-1, .cls-2 {
        stroke: #000;
        stroke-linecap: round;
        stroke-linejoin: round;
        stroke-width: 7.28px;
      }

      .cls-2 {
        fill: none;
      }
    </style>
  </defs>
  <g>
    <path class="cls-1" d="M180.56,120.49c0-1.14-.15-5.24-.34-6.38-2.53-15.48-18.48-26.87-35.46-23.64-.39-1.1-7.21-19.4-26.6-23.65-18.08-4-34.25,13.67-35.46,14.78"/>
    <path class="cls-1" d="M152.14,179.13h31a29.84,29.84,0,0,0,20.69-29.56c-.66-13.19-10.36-23.06-20.69-26.59-9.8-3.35-20.85-1.26-29.52,5.2"/>
    <path class="cls-1" d="M102.7,95.28C92.3,83.77,76,79.33,62,84.56,47.09,90.13,37.19,105.81,38.37,123a28.9,28.9,0,0,0,3,56.15h18"/>
    <path class="cls-1" d="M111.58,106.82c-.45-.87-.93-1.72-1.43-2.55"/>
    <path class="cls-1" d="M144.3,137.27c-.58.7-1.13,1.43-1.66,2.19"/>
    <path class="cls-1" d="M78.5,57.12a39.91,39.91,0,0,1,65.45-3"/>
    <path class="cls-1" d="M71.16,70.33A16.88,16.88,0,0,1,72,68"/>
    <path class="cls-2" d="M126.27,39c.6-.69,14-15.32,30.31-12.63C172.36,28.93,178.85,43,179.31,44A37.27,37.27,0,0,1,202,54.11a36.86,36.86,0,0,1,10.1,17.68c12.71,5.46,20.86,17,20.2,27.78-.91,15-18.83,29.57-40.41,25.26"/>
    <line class="cls-1" x1="61.33" y1="192.47" x2="49.2" y2="224"/>
    <line class="cls-1" x1="88.01" y1="177.91" x2="75.88" y2="209.45"/>
    <line class="cls-1" x1="104.99" y1="192.47" x2="92.86" y2="224"/>
    <line class="cls-1" x1="134.09" y1="177.91" x2="121.97" y2="209.45"/>
    <line class="cls-1" x1="151.07" y1="192.47" x2="138.95" y2="224"/>
  </g>
</svg>
