<svg id="Слой_1" data-name="Слой 1" xmlns="http://www.w3.org/2000/svg" viewBox="0 0 250 250">
  <defs>
    <style>
      .cls-1 {
        fill: #ffe106;
      }

      .cls-2, .cls-3 {
        fill: none;
        stroke-miterlimit: 10;
      }

      .cls-2, .cls-3, .cls-4 {
        stroke: #000;
      }

      .cls-2, .cls-3, .cls-4, .cls-5 {
        stroke-width: 7.35px;
      }

      .cls-3, .cls-4, .cls-5 {
        stroke-linecap: round;
      }

      .cls-4, .cls-5 {
        fill: #fff;
        stroke-linejoin: round;
      }

      .cls-5 {
        stroke: #fff;
      }
    </style>
  </defs>
  <g>
    <circle class="cls-1" cx="199.6" cy="53.47" r="29.29"/>
    <g>
      <circle class="cls-2" cx="153.97" cy="91.97" r="53.2"/>
      <g>
        <line class="cls-3" x1="130.11" y1="149.34" x2="123.52" y2="165.19"/>
        <line class="cls-3" x1="184.28" y1="19.09" x2="177.69" y2="34.93"/>
      </g>
      <g>
        <line class="cls-3" x1="177.53" y1="149.41" x2="184.07" y2="165.27"/>
        <line class="cls-3" x1="123.73" y1="19" x2="130.27" y2="34.86"/>
      </g>
      <g>
        <line class="cls-3" x1="211.1" y1="115.93" x2="226.95" y2="122.52"/>
        <line class="cls-3" x1="80.85" y1="61.76" x2="96.69" y2="68.35"/>
      </g>
      <g>
        <line class="cls-3" x1="211.17" y1="68.51" x2="227.03" y2="61.96"/>
        <line class="cls-3" x1="80.76" y1="122.31" x2="96.63" y2="115.76"/>
      </g>
    </g>
    <g>
      <path class="cls-4" d="M185.64,126.48c0-1.15-.15-5.29-.34-6.44-2.55-15.63-18.66-27.14-35.81-23.88-.39-1.1-7.28-19.58-26.86-23.87-18.25-4-34.59,13.8-35.81,14.92L60.35,140.38l19.59,31.84h98Z"/>
      <polygon class="cls-5" points="57.9 164.87 75.04 145.28 168.11 159.97 168.11 184.47 57.9 182.02 57.9 164.87"/>
      <path class="cls-4" d="M107,101c-10.51-11.62-27-16.11-41.09-10.83C50.87,95.82,40.87,111.66,42.06,129a29.18,29.18,0,0,0,3,56.7H63.26"/>
      <path class="cls-4" d="M116,112.68q-.67-1.32-1.44-2.58"/>
      <path class="cls-4" d="M156.94,185.69h31.34a30.11,30.11,0,0,0,20.89-29.84c-.66-13.32-10.45-23.29-20.89-26.86-9.89-3.38-21.05-1.27-29.81,5.25"/>
      <path class="cls-4" d="M149,143.42c-.58.71-1.14,1.45-1.67,2.21"/>
      <line class="cls-4" x1="65.24" y1="199.16" x2="53" y2="231"/>
      <line class="cls-4" x1="92.18" y1="184.47" x2="79.94" y2="216.3"/>
      <line class="cls-4" x1="109.33" y1="199.16" x2="97.08" y2="231"/>
      <line class="cls-4" x1="138.72" y1="184.47" x2="126.47" y2="216.3"/>
      <line class="cls-4" x1="155.86" y1="199.16" x2="143.62" y2="231"/>
    </g>
  </g>
</svg>
