<svg id="Слой_1" data-name="Слой 1" xmlns="http://www.w3.org/2000/svg" viewBox="0 0 250 250">
  <defs>
    <style>
      .cls-1 {
        fill: #5568c6;
      }

      .cls-2 {
        fill: none;
      }

      .cls-2, .cls-3 {
        stroke: #000;
      }

      .cls-2, .cls-3, .cls-4 {
        stroke-linecap: round;
        stroke-linejoin: round;
        stroke-width: 7.58px;
      }

      .cls-3, .cls-4 {
        fill: #fff;
      }

      .cls-4 {
        stroke: #fff;
      }
    </style>
  </defs>
  <g>
    <circle class="cls-1" cx="179.08" cy="75.11" r="30.33"/>
    <path class="cls-2" d="M230.77,79.43A40.86,40.86,0,0,0,234,75.54a50.46,50.46,0,1,1-58.47-57.79,42.17,42.17,0,0,0-5.34,4.79,41.55,41.55,0,1,0,60.58,56.89Z"/>
    <g>
      <path class="cls-3" d="M185.79,124.38c0-1.19-.15-5.46-.34-6.65-2.64-16.13-19.26-28-37-24.64C148.08,92,141,72.88,120.77,68.46c-18.84-4.13-35.69,14.23-37,15.39L56.49,138.72l20.22,32.86H177.82Z"/>
      <polygon class="cls-4" points="53.96 164 71.66 143.78 167.71 158.94 167.71 184.22 53.96 181.69 53.96 164"/>
      <path class="cls-3" d="M104.66,98.11c-10.84-12-27.83-16.62-42.4-11.18-15.55,5.81-25.87,22.16-24.64,40a30.12,30.12,0,0,0,3.08,58.52H59.5"/>
      <path class="cls-3" d="M113.91,110.14c-.47-.91-1-1.8-1.48-2.66"/>
      <path class="cls-3" d="M156.18,185.49h32.35a31.09,31.09,0,0,0,21.55-30.8c-.68-13.75-10.79-24-21.55-27.72-10.21-3.49-21.73-1.31-30.77,5.42"/>
      <path class="cls-3" d="M148,141.86c-.6.73-1.18,1.5-1.73,2.28"/>
      <line class="cls-3" x1="61.55" y1="199.39" x2="48.91" y2="232.25"/>
      <line class="cls-3" x1="89.35" y1="184.22" x2="76.71" y2="217.08"/>
      <line class="cls-3" x1="107.04" y1="199.39" x2="94.41" y2="232.25"/>
      <line class="cls-3" x1="137.38" y1="184.22" x2="124.74" y2="217.08"/>
      <line class="cls-3" x1="155.07" y1="199.39" x2="142.43" y2="232.25"/>
    </g>
  </g>
</svg>
