<svg id="Слой_1" data-name="Слой 1" xmlns="http://www.w3.org/2000/svg" viewBox="0 0 250 250">
  <defs>
    <style>
      .cls-1 {
        fill: #fff;
      }

      .cls-1, .cls-2 {
        stroke: #000;
        stroke-linecap: round;
        stroke-linejoin: round;
        stroke-width: 7.39px;
      }

      .cls-2 {
        fill: none;
      }
    </style>
  </defs>
  <g>
    <g>
      <path class="cls-1" d="M181.39,122.89c0-1.16-.15-5.33-.33-6.48-2.57-15.71-18.76-27.28-36-24-.4-1.12-7.32-19.69-27-24-18.35-4-34.77,13.87-36,15"/>
      <path class="cls-1" d="M152.55,182.41h31.51a30.29,30.29,0,0,0,21-30c-.67-13.39-10.52-23.42-21-27-9.95-3.4-21.17-1.28-30,5.28"/>
      <path class="cls-1" d="M102.36,97.29C91.8,85.61,75.25,81.1,61.06,86.41c-15.14,5.66-25.19,21.58-24,39a29.34,29.34,0,0,0,3,57H70.68"/>
      <path class="cls-1" d="M111.37,109c-.45-.89-.93-1.75-1.44-2.59"/>
      <path class="cls-1" d="M144.59,139.91c-.58.72-1.15,1.46-1.68,2.23"/>
      <path class="cls-1" d="M77.8,58.56a40.5,40.5,0,0,1,66.43-3.06"/>
      <path class="cls-1" d="M70.34,72a19.55,19.55,0,0,1,.83-2.37"/>
      <path class="cls-2" d="M126.29,40.12c.6-.7,14.18-15.55,30.76-12.82,16,2.65,22.61,16.9,23.07,18A37.8,37.8,0,0,1,203.2,55.5a37.26,37.26,0,0,1,10.25,18C226.36,79,234.63,90.66,234,101.65c-.93,15.24-19.11,30-41,25.64"/>
    </g>
    <polyline class="cls-1" points="97.3 173.79 82.53 198.41 99.76 193.49 84.99 223.03"/>
    <polyline class="cls-1" points="134.23 173.79 119.46 198.41 136.69 193.49 121.92 223.03"/>
  </g>
</svg>
